# xmcd
#
# Track frame offsets: 
#        150
#        6132
#        28106
#        47921
#        68532
#        92700
#        109108
#        128141
#        150558
#        171322
#        193445
#        212117
#        235705
#        257749
#        276888
#
# Disc length: 3910 seconds
#
# Revision: 0
# Processed by: cddbd v1.5.2PL0 Copyright (c) Steve Scherf et al.
# Submitted via: ExactAudioCopy v1.0b3
#
DISCID=d20f440f
DTITLE=Don Ho - Don Xuan Chuc Xuan
DYEAR=2009
DGENRE=
TTITLE0=Loi chuc Tet
TTITLE1=Don Ho, Ngoc Ha - Ly ruou mung
TTITLE2=Chuc Xuan
TTITLE3=Xuan va tuoi tre
TTITLE4=Don giao thua ben anh
TTITLE5=Don Ho, thieu nhi - Than Tai den
TTITLE6=Hat vui mua Xuan
TTITLE7=Don Ho, thieu nhi - Don Xuan
TTITLE8=Don Ho, Lan Anh - Phao don Xuan
TTITLE9=Xuan ve tren xu lanh
TTITLE10=Xuan hoa binh
TTITLE11=La hoa vao Xuan
TTITLE12=hoa tau - Ly ruou mung
TTITLE13=hoa tau - Chuc Xuan
TTITLE14=hoa tau - Than tai den
EXTD=
EXTT0=
EXTT1=
EXTT2=
EXTT3=
EXTT4=
EXTT5=
EXTT6=
EXTT7=
EXTT8=
EXTT9=
EXTT10=
EXTT11=
EXTT12=
EXTT13=
EXTT14=
PLAYORDER=
